<?xml version="1.0" encoding="UTF-8"?>
<svg id="Layer_2" data-name="Layer 2" xmlns="http://www.w3.org/2000/svg" xmlns:xlink="http://www.w3.org/1999/xlink" viewBox="0 0 303.48 252.09">
  <defs>
    <style>
      .cls-1 {
        fill: #fff;
      }

      .cls-2 {
        fill: #e6f5f3;
      }

      .cls-3 {
        clip-path: url(#clippath);
      }
    </style>
    <clipPath id="clippath">
      <rect class="cls-2" y="0" width="303.48" height="252.09"/>
    </clipPath>
  </defs>
  <g id="Layer_1-2" data-name="Layer 1">
    <g>
      <rect class="cls-2" y="0" width="303.48" height="252.09"/>
      <g class="cls-3">
        <g>
          <g>
            <g>
              <path class="cls-2" d="M0,122.65C-67.63,122.65-122.65,67.63-122.65,0S-67.63-122.65,0-122.65,122.65-67.63,122.65,0,67.63,122.65,0,122.65Z"/>
              <path class="cls-1" d="M0-119.24c31.85,0,61.8,12.4,84.32,34.93C106.84-61.8,119.24-31.85,119.24,0s-12.4,61.8-34.93,84.32C61.8,106.84,31.85,119.24,0,119.24s-61.8-12.4-84.32-34.93C-106.84,61.8-119.24,31.85-119.24,0s12.4-61.8,34.93-84.32C-61.8-106.84-31.85-119.24,0-119.24M0-126.05C-69.61-126.05-126.05-69.61-126.05,0S-69.61,126.05,0,126.05,126.05,69.61,126.05,0,69.61-126.05,0-126.05H0Z"/>
            </g>
            <g>
              <path class="cls-2" d="M0,79.09C-43.61,79.09-79.09,43.61-79.09,0S-43.61-79.09,0-79.09,79.09-43.61,79.09,0,43.61,79.09,0,79.09Z"/>
              <path class="cls-1" d="M0-76.68C42.28-76.68,76.68-42.28,76.68,0S42.28,76.68,0,76.68-76.68,42.28-76.68,0-42.28-76.68,0-76.68M0-81.5C-45.01-81.5-81.5-45.01-81.5,0S-45.01,81.5,0,81.5,81.5,45.01,81.5,0,45.01-81.5,0-81.5H0Z"/>
            </g>
            <g>
              <path class="cls-2" d="M0,35.53C-19.59,35.53-35.53,19.59-35.53,0S-19.59-35.53,0-35.53,35.53-19.59,35.53,0,19.59,35.53,0,35.53Z"/>
              <path class="cls-1" d="M0-34.11C18.81-34.11,34.11-18.81,34.11,0S18.81,34.11,0,34.11-34.11,18.81-34.11,0-18.81-34.11,0-34.11M0-36.95C-20.4-36.95-36.94-20.4-36.94,0S-20.4,36.95,0,36.95,36.95,20.4,36.95,0,20.4-36.95,0-36.95H0Z"/>
            </g>
          </g>
          <g>
            <g>
              <path class="cls-2" d="M303.48,122.65C235.86,122.65,180.84,67.63,180.84,0s55.02-122.65,122.65-122.65S426.13-67.63,426.13,0s-55.02,122.65-122.65,122.65Z"/>
              <path class="cls-1" d="M303.48-119.24c31.85,0,61.8,12.4,84.32,34.93C410.32-61.8,422.73-31.85,422.73,0s-12.4,61.8-34.93,84.32c-22.52,22.52-52.47,34.93-84.32,34.93s-61.8-12.4-84.32-34.93C196.64,61.8,184.24,31.85,184.24,0s12.4-61.8,34.93-84.32c22.52-22.52,52.47-34.93,84.32-34.93M303.48-126.05C233.87-126.05,177.44-69.61,177.44,0s56.43,126.05,126.05,126.05S429.53,69.61,429.53,0s-56.43-126.05-126.05-126.05h0Z"/>
            </g>
            <g>
              <path class="cls-2" d="M303.48,79.09C259.88,79.09,224.4,43.61,224.4,0s35.48-79.09,79.09-79.09S382.57-43.61,382.57,0s-35.48,79.09-79.09,79.09Z"/>
              <path class="cls-1" d="M303.48-76.68C345.76-76.68,380.16-42.28,380.16,0s-34.4,76.68-76.68,76.68S226.81,42.28,226.81,0s34.4-76.68,76.68-76.68M303.48-81.5C258.48-81.5,221.99-45.01,221.99,0s36.49,81.5,81.5,81.5S384.98,45.01,384.98,0s-36.49-81.5-81.5-81.5h0Z"/>
            </g>
            <g>
              <path class="cls-2" d="M303.48,35.53C283.89,35.53,267.96,19.59,267.96,0s15.94-35.53,35.53-35.53S339.01-19.59,339.01,0s-15.94,35.53-35.53,35.53Z"/>
              <path class="cls-1" d="M303.48-34.11C322.29-34.11,337.59-18.81,337.59,0s-15.3,34.11-34.11,34.11S269.37,18.81,269.37,0s15.3-34.11,34.11-34.11M303.48-36.95C283.08-36.95,266.54-20.4,266.54,0s16.54,36.95,36.94,36.95S340.43,20.4,340.43,0s-16.54-36.94-36.94-36.94h0Z"/>
            </g>
          </g>
          <g>
            <g>
              <path class="cls-2" d="M151.74,194.65c-67.63,0-122.65-55.02-122.65-122.65s55.02-122.65,122.65-122.65,122.65,55.02,122.65,122.65-55.02,122.65-122.65,122.65Z"/>
              <path class="cls-1" d="M151.74-47.24c31.85,0,61.8,12.4,84.32,34.93,22.52,22.52,34.93,52.47,34.93,84.32s-12.4,61.8-34.93,84.32c-22.52,22.52-52.47,34.93-84.32,34.93s-61.8-12.4-84.32-34.93c-22.52-22.52-34.93-52.47-34.93-84.32S44.9,10.2,67.42-12.32c22.52-22.52,52.47-34.93,84.32-34.93M151.74-54.05C82.13-54.05,25.7,2.39,25.7,72s56.43,126.05,126.05,126.05,126.05-56.43,126.05-126.05-56.43-126.05-126.05-126.05h0Z"/>
            </g>
            <g>
              <path class="cls-2" d="M151.74,151.09c-43.61,0-79.09-35.48-79.09-79.09S108.13-7.09,151.74-7.09s79.09,35.48,79.09,79.09-35.48,79.09-79.09,79.09Z"/>
              <path class="cls-1" d="M151.74-4.68c42.28,0,76.68,34.4,76.68,76.68s-34.4,76.68-76.68,76.68-76.68-34.4-76.68-76.68S109.46-4.68,151.74-4.68M151.74-9.5c-45.01,0-81.5,36.49-81.5,81.5s36.49,81.5,81.5,81.5,81.5-36.49,81.5-81.5S196.75-9.5,151.74-9.5h0Z"/>
            </g>
            <g>
              <path class="cls-2" d="M151.74,107.53c-19.59,0-35.53-15.94-35.53-35.53s15.94-35.53,35.53-35.53,35.53,15.94,35.53,35.53-15.94,35.53-35.53,35.53Z"/>
              <path class="cls-1" d="M151.74,37.89c18.81,0,34.11,15.3,34.11,34.11s-15.3,34.11-34.11,34.11-34.11-15.3-34.11-34.11,15.3-34.11,34.11-34.11M151.74,35.05c-20.4,0-36.94,16.54-36.94,36.94s16.54,36.95,36.94,36.95,36.94-16.54,36.94-36.95-16.54-36.94-36.94-36.94h0Z"/>
            </g>
          </g>
          <g>
            <g>
              <path class="cls-2" d="M0,248.69c-67.63,0-122.65-55.02-122.65-122.65S-67.63,3.4,0,3.4s122.65,55.02,122.65,122.65S67.63,248.69,0,248.69Z"/>
              <path class="cls-1" d="M0,6.8c31.85,0,61.8,12.4,84.32,34.93s34.93,52.47,34.93,84.32-12.4,61.8-34.93,84.32C61.8,232.89,31.85,245.29,0,245.29s-61.8-12.4-84.32-34.93c-22.52-22.52-34.93-52.47-34.93-84.32s12.4-61.8,34.93-84.32C-61.8,19.21-31.85,6.8,0,6.8M0,0C-69.61,0-126.05,56.43-126.05,126.05S-69.61,252.09,0,252.09s126.05-56.43,126.05-126.05S69.61,0,0,0H0Z"/>
            </g>
            <g>
              <path class="cls-2" d="M0,205.13c-43.61,0-79.09-35.48-79.09-79.09S-43.61,46.96,0,46.96s79.09,35.48,79.09,79.09S43.61,205.13,0,205.13Z"/>
              <path class="cls-1" d="M0,49.37c42.28,0,76.68,34.4,76.68,76.68S42.28,202.72,0,202.72s-76.68-34.4-76.68-76.68S-42.28,49.37,0,49.37M0,44.55c-45.01,0-81.5,36.49-81.5,81.5S-45.01,207.54,0,207.54s81.5-36.49,81.5-81.5S45.01,44.55,0,44.55H0Z"/>
            </g>
            <g>
              <path class="cls-2" d="M0,161.57c-19.59,0-35.53-15.94-35.53-35.53S-19.59,90.52,0,90.52s35.53,15.94,35.53,35.53S19.59,161.57,0,161.57Z"/>
              <path class="cls-1" d="M0,91.94c18.81,0,34.11,15.3,34.11,34.11S18.81,160.16,0,160.16s-34.11-15.3-34.11-34.11S-18.81,91.94,0,91.94M0,89.1c-20.4,0-36.94,16.54-36.94,36.94S-20.4,162.99,0,162.99s36.95-16.54,36.95-36.94S20.4,89.1,0,89.1H0Z"/>
            </g>
          </g>
          <g>
            <g>
              <path class="cls-2" d="M303.48,248.69c-67.63,0-122.65-55.02-122.65-122.65S235.86,3.4,303.48,3.4s122.65,55.02,122.65,122.65-55.02,122.65-122.65,122.65Z"/>
              <path class="cls-1" d="M303.48,6.8c31.85,0,61.8,12.4,84.32,34.93,22.52,22.52,34.93,52.47,34.93,84.32s-12.4,61.8-34.93,84.32c-22.52,22.52-52.47,34.93-84.32,34.93s-61.8-12.4-84.32-34.93c-22.52-22.52-34.93-52.47-34.93-84.32s12.4-61.8,34.93-84.32S271.63,6.8,303.48,6.8M303.48,0C233.87,0,177.44,56.43,177.44,126.05s56.43,126.05,126.05,126.05,126.05-56.43,126.05-126.05S373.1,0,303.48,0h0Z"/>
            </g>
            <g>
              <path class="cls-2" d="M303.48,205.13c-43.61,0-79.09-35.48-79.09-79.09s35.48-79.09,79.09-79.09,79.09,35.48,79.09,79.09-35.48,79.09-79.09,79.09Z"/>
              <path class="cls-1" d="M303.48,49.37c42.28,0,76.68,34.4,76.68,76.68s-34.4,76.68-76.68,76.68-76.68-34.4-76.68-76.68,34.4-76.68,76.68-76.68M303.48,44.55c-45.01,0-81.5,36.49-81.5,81.5s36.49,81.5,81.5,81.5,81.5-36.49,81.5-81.5-36.49-81.5-81.5-81.5h0Z"/>
            </g>
            <g>
              <path class="cls-2" d="M303.48,161.57c-19.59,0-35.53-15.94-35.53-35.53s15.94-35.53,35.53-35.53,35.53,15.94,35.53,35.53-15.94,35.53-35.53,35.53Z"/>
              <path class="cls-1" d="M303.48,91.94c18.81,0,34.11,15.3,34.11,34.11s-15.3,34.11-34.11,34.11-34.11-15.3-34.11-34.11,15.3-34.11,34.11-34.11M303.48,89.1c-20.4,0-36.94,16.54-36.94,36.94s16.54,36.94,36.94,36.94,36.94-16.54,36.94-36.94-16.54-36.94-36.94-36.94h0Z"/>
            </g>
          </g>
          <g>
            <g>
              <path class="cls-2" d="M151.74,320.69c-67.63,0-122.65-55.02-122.65-122.65s55.02-122.65,122.65-122.65,122.65,55.02,122.65,122.65-55.02,122.65-122.65,122.65Z"/>
              <path class="cls-1" d="M151.74,78.8c31.85,0,61.8,12.4,84.32,34.93s34.93,52.47,34.93,84.32-12.4,61.8-34.93,84.32c-22.52,22.52-52.47,34.93-84.32,34.93s-61.8-12.4-84.32-34.93c-22.52-22.52-34.93-52.47-34.93-84.32s12.4-61.8,34.93-84.32c22.52-22.52,52.47-34.93,84.32-34.93M151.74,72c-69.61,0-126.05,56.43-126.05,126.05s56.43,126.05,126.05,126.05,126.05-56.43,126.05-126.05-56.43-126.05-126.05-126.05h0Z"/>
            </g>
            <g>
              <path class="cls-2" d="M151.74,277.13c-43.61,0-79.09-35.48-79.09-79.09s35.48-79.09,79.09-79.09,79.09,35.48,79.09,79.09-35.48,79.09-79.09,79.09Z"/>
              <path class="cls-1" d="M151.74,121.37c42.28,0,76.68,34.4,76.68,76.68s-34.4,76.68-76.68,76.68-76.68-34.4-76.68-76.68,34.4-76.68,76.68-76.68M151.74,116.55c-45.01,0-81.5,36.49-81.5,81.5s36.49,81.5,81.5,81.5,81.5-36.49,81.5-81.5-36.49-81.5-81.5-81.5h0Z"/>
            </g>
            <g>
              <path class="cls-2" d="M151.74,233.57c-19.59,0-35.53-15.94-35.53-35.53s15.94-35.53,35.53-35.53,35.53,15.94,35.53,35.53-15.94,35.53-35.53,35.53Z"/>
              <path class="cls-1" d="M151.74,163.94c18.81,0,34.11,15.3,34.11,34.11s-15.3,34.11-34.11,34.11-34.11-15.3-34.11-34.11,15.3-34.11,34.11-34.11M151.74,161.1c-20.4,0-36.94,16.54-36.94,36.94s16.54,36.94,36.94,36.94,36.94-16.54,36.94-36.94-16.54-36.94-36.94-36.94h0Z"/>
            </g>
          </g>
          <g>
            <g>
              <path class="cls-2" d="M0,374.74c-67.63,0-122.65-55.02-122.65-122.65S-67.63,129.45,0,129.45s122.65,55.02,122.65,122.65S67.63,374.74,0,374.74Z"/>
              <path class="cls-1" d="M0,132.85c31.85,0,61.8,12.4,84.32,34.93s34.93,52.47,34.93,84.32-12.4,61.8-34.93,84.32S31.85,371.34,0,371.34s-61.8-12.4-84.32-34.93c-22.52-22.52-34.93-52.47-34.93-84.32s12.4-61.8,34.93-84.32C-61.8,145.25-31.85,132.85,0,132.85M0,126.05c-69.61,0-126.05,56.43-126.05,126.05S-69.61,378.14,0,378.14s126.05-56.43,126.05-126.05S69.61,126.05,0,126.05H0Z"/>
            </g>
            <g>
              <path class="cls-2" d="M0,331.18c-43.61,0-79.09-35.48-79.09-79.09S-43.61,173.01,0,173.01s79.09,35.48,79.09,79.09S43.61,331.18,0,331.18Z"/>
              <path class="cls-1" d="M0,175.42c42.28,0,76.68,34.4,76.68,76.68S42.28,328.77,0,328.77s-76.68-34.4-76.68-76.68S-42.28,175.42,0,175.42M0,170.6c-45.01,0-81.5,36.49-81.5,81.5S-45.01,333.59,0,333.59s81.5-36.49,81.5-81.5S45.01,170.6,0,170.6H0Z"/>
            </g>
            <g>
              <path class="cls-2" d="M0,287.62c-19.59,0-35.53-15.94-35.53-35.53S-19.59,216.57,0,216.57s35.53,15.94,35.53,35.53S19.59,287.62,0,287.62Z"/>
              <path class="cls-1" d="M0,217.98c18.81,0,34.11,15.3,34.11,34.11S18.81,286.2,0,286.2s-34.11-15.3-34.11-34.11S-18.81,217.98,0,217.98M0,215.15c-20.4,0-36.94,16.54-36.94,36.94S-20.4,289.04,0,289.04s36.95-16.54,36.95-36.94S20.4,215.15,0,215.15H0Z"/>
            </g>
          </g>
          <g>
            <g>
              <path class="cls-2" d="M303.48,374.74c-67.63,0-122.65-55.02-122.65-122.65s55.02-122.65,122.65-122.65,122.65,55.02,122.65,122.65-55.02,122.65-122.65,122.65Z"/>
              <path class="cls-1" d="M303.48,132.85c31.85,0,61.8,12.4,84.32,34.93,22.52,22.52,34.93,52.47,34.93,84.32s-12.4,61.8-34.93,84.32c-22.52,22.52-52.47,34.93-84.32,34.93s-61.8-12.4-84.32-34.93-34.93-52.47-34.93-84.32,12.4-61.8,34.93-84.32,52.47-34.93,84.32-34.93M303.48,126.05c-69.61,0-126.05,56.43-126.05,126.05s56.43,126.05,126.05,126.05,126.05-56.43,126.05-126.05-56.43-126.05-126.05-126.05h0Z"/>
            </g>
            <g>
              <path class="cls-2" d="M303.48,331.18c-43.61,0-79.09-35.48-79.09-79.09s35.48-79.09,79.09-79.09,79.09,35.48,79.09,79.09-35.48,79.09-79.09,79.09Z"/>
              <path class="cls-1" d="M303.48,175.42c42.28,0,76.68,34.4,76.68,76.68s-34.4,76.68-76.68,76.68-76.68-34.4-76.68-76.68,34.4-76.68,76.68-76.68M303.48,170.6c-45.01,0-81.5,36.49-81.5,81.5s36.49,81.5,81.5,81.5,81.5-36.49,81.5-81.5-36.49-81.5-81.5-81.5h0Z"/>
            </g>
            <g>
              <path class="cls-2" d="M303.48,287.62c-19.59,0-35.53-15.94-35.53-35.53s15.94-35.53,35.53-35.53,35.53,15.94,35.53,35.53-15.94,35.53-35.53,35.53Z"/>
              <path class="cls-1" d="M303.48,217.98c18.81,0,34.11,15.3,34.11,34.11s-15.3,34.11-34.11,34.11-34.11-15.3-34.11-34.11,15.3-34.11,34.11-34.11M303.48,215.15c-20.4,0-36.94,16.54-36.94,36.94s16.54,36.94,36.94,36.94,36.94-16.54,36.94-36.94-16.54-36.94-36.94-36.94h0Z"/>
            </g>
          </g>
          <g>
            <g>
              <path class="cls-2" d="M151.74,446.74c-67.63,0-122.65-55.02-122.65-122.65s55.02-122.65,122.65-122.65,122.65,55.02,122.65,122.65-55.02,122.65-122.65,122.65Z"/>
              <path class="cls-1" d="M151.74,204.85c31.85,0,61.8,12.4,84.32,34.93s34.93,52.47,34.93,84.32-12.4,61.8-34.93,84.32-52.47,34.93-84.32,34.93-61.8-12.4-84.32-34.93c-22.52-22.52-34.93-52.47-34.93-84.32s12.4-61.8,34.93-84.32c22.52-22.52,52.47-34.93,84.32-34.93M151.74,198.05c-69.61,0-126.05,56.43-126.05,126.05s56.43,126.05,126.05,126.05,126.05-56.43,126.05-126.05-56.43-126.05-126.05-126.05h0Z"/>
            </g>
            <g>
              <path class="cls-2" d="M151.74,403.18c-43.61,0-79.09-35.48-79.09-79.09s35.48-79.09,79.09-79.09,79.09,35.48,79.09,79.09-35.48,79.09-79.09,79.09Z"/>
              <path class="cls-1" d="M151.74,247.42c42.28,0,76.68,34.4,76.68,76.68s-34.4,76.68-76.68,76.68-76.68-34.4-76.68-76.68,34.4-76.68,76.68-76.68M151.74,242.6c-45.01,0-81.5,36.49-81.5,81.5s36.49,81.5,81.5,81.5,81.5-36.49,81.5-81.5-36.49-81.5-81.5-81.5h0Z"/>
            </g>
          </g>
        </g>
      </g>
    </g>
  </g>
</svg>