<svg width="48" height="49" viewBox="0 0 48 49" fill="none" xmlns="http://www.w3.org/2000/svg">
<path d="M12 28.9131H28V24.9131H12V28.9131ZM12 22.9131H36V18.9131H12V22.9131ZM12 16.9131H36V12.9131H12V16.9131ZM4 44.9131V8.91309C4 7.81309 4.39167 6.87142 5.175 6.08809C5.95833 5.30475 6.9 4.91309 8 4.91309H40C41.1 4.91309 42.0417 5.30475 42.825 6.08809C43.6083 6.87142 44 7.81309 44 8.91309V32.9131C44 34.0131 43.6083 34.9548 42.825 35.7381C42.0417 36.5214 41.1 36.9131 40 36.9131H12L4 44.9131ZM10.3 32.9131H40V8.91309H8V35.1631L10.3 32.9131Z" fill="#ED2530"/>
</svg>
