<?xml version="1.0" encoding="UTF-8"?>
<svg id="Layer_1" xmlns="http://www.w3.org/2000/svg" version="1.1" viewBox="0 0 24 24">
  <!-- Generator: Adobe Illustrator 29.6.1, SVG Export Plug-In . SVG Version: 2.1.1 Build 9)  -->
  <defs>
    <style>
      .st0 {
        fill: #e3e3e3;
      }

      .st1 {
        fill: #26364f;
      }

      .st2 {
        fill: #ed2530;
      }
    </style>
  </defs>
  <path class="st1" d="M7,14h6c.3,0,.5,0,.7-.3s.3-.4.3-.7,0-.5-.3-.7-.4-.3-.7-.3h-6c-.3,0-.5,0-.7.3-.2.2-.3.4-.3.7s0,.5.3.7c.2.2.4.3.7.3Z"/>
  <path class="st1" d="M7,11h10c.3,0,.5,0,.7-.3s.3-.4.3-.7,0-.5-.3-.7-.4-.3-.7-.3H7c-.3,0-.5,0-.7.3-.2.2-.3.4-.3.7s0,.5.3.7c.2.2.4.3.7.3Z"/>
  <path class="st1" d="M7,8h8c.3,0,.5,0,.7-.3s.3-.4.3-.7,0-.5-.3-.7-.4-.3-.7-.3H7c-.3,0-.5,0-.7.3-.2.2-.3.4-.3.7s0,.5.3.7c.2.2.4.3.7.3Z"/>
  <path class="st1" d="M6,18l-2.3,2.3c-.3.3-.7.4-1.1.2s-.6-.5-.6-.9V4c0-.6.2-1,.6-1.4s.9-.6,1.4-.6h9c.3,0,.5,0,.7.3s.3.4.3.7,0,.5-.3.7-.4.3-.7.3H4v13.1l1.2-1.1h14.9v-7c0-.3,0-.5.3-.7s.4-.3.7-.3.5,0,.7.3.3.4.3.7v7c0,.6-.2,1-.6,1.4-.4.4-.9.6-1.4.6H6Z"/>
  <path class="st2" d="M19,6c-.8,0-1.5-.3-2.1-.9s-.9-1.3-.9-2.1.3-1.5.9-2.1S18.2,0,19,0s1.5.3,2.1.9.9,1.3.9,2.1-.3,1.5-.9,2.1-1.3.9-2.1.9Z"/>
  <path class="st0" d="M4,4v12V4Z"/>
</svg>