<svg width="175" height="50" viewBox="0 0 175 50" fill="none" xmlns="http://www.w3.org/2000/svg">
<path d="M11.696 18.088C11.696 19.7307 11.2587 21.128 10.384 22.28C9.50933 23.4107 8.112 23.976 6.192 23.976C4.272 23.976 2.85333 23.432 1.936 22.344C1.01867 21.256 0.56 19.944 0.56 18.408C0.56 15.976 1.70133 14.0667 3.984 12.68C6.26667 11.2933 9.91467 10.6 14.928 10.6H17.808L23.472 24.392L29.136 10.6H36.88V14.44H33.776V29.64H36.88V33H27.312V29.64H29.616V19.528L25.072 31.08H21.872L17.328 19.528V29.64H19.632V33H10.064V29.64H13.168V14.472C9.968 14.5573 7.728 14.9093 6.448 15.528C5.18933 16.1253 4.56 17.0427 4.56 18.28C4.56 19.5173 5.104 20.136 6.192 20.136C7.19467 20.136 7.696 19.4533 7.696 18.088H11.696ZM40.7953 30.984C39.3659 29.4053 38.6513 27.4107 38.6513 25C38.6513 22.5893 39.3659 20.6053 40.7953 19.048C42.2246 17.4693 44.2299 16.68 46.8113 16.68C49.3926 16.68 51.3979 17.4693 52.8273 19.048C54.2566 20.6053 54.9713 22.5893 54.9713 25C54.9713 27.4107 54.2566 29.4053 52.8273 30.984C51.3979 32.5413 49.3926 33.32 46.8113 33.32C44.2299 33.32 42.2246 32.5413 40.7953 30.984ZM43.8673 21.8C43.1633 22.632 42.8113 23.6987 42.8113 25C42.8113 26.3013 43.1633 27.3787 43.8673 28.232C44.5713 29.064 45.5526 29.48 46.8113 29.48C48.0699 29.48 49.0513 29.064 49.7553 28.232C50.4593 27.3787 50.8113 26.3013 50.8113 25C50.8113 23.6987 50.4593 22.632 49.7553 21.8C49.0513 20.9467 48.0699 20.52 46.8113 20.52C45.5526 20.52 44.5713 20.9467 43.8673 21.8ZM63.3578 29.48H66.1418V33H56.7338V29.48H59.1978V20.52H56.7338V17H62.3978L62.8778 18.568C64.8831 17.3093 66.6964 16.68 68.3178 16.68C70.3231 16.68 71.7098 17.2667 72.4778 18.44C73.2458 19.6133 73.6298 21.2347 73.6298 23.304V29.64H76.2538V32.424C75.3364 32.9147 74.2271 33.16 72.9258 33.16C71.6244 33.16 70.7178 32.872 70.2058 32.296C69.7151 31.72 69.4698 30.7813 69.4698 29.48V23.304C69.4698 22.3653 69.3418 21.672 69.0858 21.224C68.8298 20.7547 68.2324 20.52 67.2938 20.52C66.3551 20.52 65.0431 21.16 63.3578 22.44V29.48ZM92.4025 9V29.64H95.0265V32.424C94.1092 32.9147 92.9572 33.16 91.5705 33.16C89.4585 33.16 88.3492 32.52 88.2425 31.24C87.2612 32.6267 86.0025 33.32 84.4665 33.32C82.2905 33.32 80.6158 32.552 79.4425 31.016C78.2692 29.4587 77.6825 27.4747 77.6825 25.064C77.6825 22.632 78.3545 20.6267 79.6985 19.048C81.0638 17.4693 83.0158 16.68 85.5545 16.68C86.2798 16.68 87.1758 16.744 88.2425 16.872V12.52H85.7785V9H92.4025ZM81.8425 24.936C81.8425 26.2587 82.1092 27.3467 82.6425 28.2C83.1972 29.0533 83.9545 29.48 84.9145 29.48C85.8745 29.48 86.6638 28.9787 87.2825 27.976C87.9225 26.9733 88.2425 25.768 88.2425 24.36V21.064C87.4105 20.7013 86.5892 20.52 85.7785 20.52C84.5838 20.52 83.6238 20.9253 82.8985 21.736C82.1945 22.5253 81.8425 23.592 81.8425 24.936ZM105.904 30.92C104.581 32.52 103.109 33.32 101.488 33.32C99.8664 33.32 98.5971 32.904 97.6798 32.072C96.7624 31.24 96.3038 30.0773 96.3038 28.584C96.3038 27.0693 96.9011 25.7893 98.0958 24.744C99.2904 23.6987 101.05 23.176 103.376 23.176H105.904V22.024C105.904 21.0213 105.274 20.52 104.016 20.52C102.757 20.52 101.637 20.6587 100.656 20.936V22.76H96.9758V17.992C98.0211 17.5867 99.2371 17.2667 100.624 17.032C102.032 16.7973 103.205 16.68 104.144 16.68C106 16.68 107.45 17.1707 108.496 18.152C109.541 19.112 110.064 20.4027 110.064 22.024V29.64H112.688V32.424C111.77 32.9147 110.618 33.16 109.232 33.16C107.013 33.16 105.904 32.4133 105.904 30.92ZM101.776 29.48C103.248 29.48 104.624 28.6053 105.904 26.856V26.728H103.344C102.362 26.728 101.637 26.8987 101.168 27.24C100.698 27.5813 100.464 28.04 100.464 28.616C100.464 29.192 100.901 29.48 101.776 29.48ZM114.312 20.52V17H120.936V29.48H123.72V33H114.28V29.48H116.776V20.52H114.312ZM118.856 15.432C118.195 15.432 117.651 15.1973 117.224 14.728C116.819 14.2587 116.616 13.6933 116.616 13.032C116.616 12.3707 116.84 11.8053 117.288 11.336C117.736 10.8453 118.291 10.6 118.952 10.6C119.635 10.6 120.179 10.8347 120.584 11.304C120.989 11.7733 121.192 12.3387 121.192 13C121.192 13.6613 120.968 14.2373 120.52 14.728C120.072 15.1973 119.517 15.432 118.856 15.432ZM131.795 29.48H134.579V33H125.171V29.48H127.635V20.52H125.171V17H130.835L131.315 18.568C133.321 17.3093 135.134 16.68 136.755 16.68C138.761 16.68 140.147 17.2667 140.915 18.44C141.683 19.6133 142.067 21.2347 142.067 23.304V29.64H144.691V32.424C143.774 32.9147 142.665 33.16 141.363 33.16C140.062 33.16 139.155 32.872 138.643 32.296C138.153 31.72 137.907 30.7813 137.907 29.48V23.304C137.907 22.3653 137.779 21.672 137.523 21.224C137.267 20.7547 136.67 20.52 135.731 20.52C134.793 20.52 133.481 21.16 131.795 22.44V29.48ZM155.56 30.92C154.237 32.52 152.765 33.32 151.144 33.32C149.523 33.32 148.253 32.904 147.336 32.072C146.419 31.24 145.96 30.0773 145.96 28.584C145.96 27.0693 146.557 25.7893 147.752 24.744C148.947 23.6987 150.707 23.176 153.032 23.176H155.56V22.024C155.56 21.0213 154.931 20.52 153.672 20.52C152.413 20.52 151.293 20.6587 150.312 20.936V22.76H146.632V17.992C147.677 17.5867 148.893 17.2667 150.28 17.032C151.688 16.7973 152.861 16.68 153.8 16.68C155.656 16.68 157.107 17.1707 158.152 18.152C159.197 19.112 159.72 20.4027 159.72 22.024V29.64H162.344V32.424C161.427 32.9147 160.275 33.16 158.888 33.16C156.669 33.16 155.56 32.4133 155.56 30.92ZM151.432 29.48C152.904 29.48 154.28 28.6053 155.56 26.856V26.728H153C152.019 26.728 151.293 26.8987 150.824 27.24C150.355 27.5813 150.12 28.04 150.12 28.616C150.12 29.192 150.557 29.48 151.432 29.48ZM163.968 20.52V17H170.592V29.48H173.376V33H163.936V29.48H166.432V20.52H163.968ZM168.512 15.432C167.851 15.432 167.307 15.1973 166.88 14.728C166.475 14.2587 166.272 13.6933 166.272 13.032C166.272 12.3707 166.496 11.8053 166.944 11.336C167.392 10.8453 167.947 10.6 168.608 10.6C169.291 10.6 169.835 10.8347 170.24 11.304C170.646 11.7733 170.848 12.3387 170.848 13C170.848 13.6613 170.624 14.2373 170.176 14.728C169.728 15.1973 169.174 15.432 168.512 15.432Z" fill="#ED2530"/>
<line x1="63.7554" y1="48" x2="113.245" y2="48" stroke="#0D3470" stroke-width="4" stroke-linecap="round"/>
</svg>
